<svg xmlns="http://www.w3.org/2000/svg" version="1.1" width="176px" height="45px" style="shape-rendering:geometricPrecision; text-rendering:geometricPrecision; image-rendering:optimizeQuality; fill-rule:evenodd; clip-rule:evenodd" xmlns:xlink="http://www.w3.org/1999/xlink">
<g><path style="opacity:0.878" fill="#fefffe" d="M 4.5,0.5 C 14.8387,0.333507 25.172,0.500173 35.5,1C 44.2483,5.54502 47.415,12.7117 45,22.5C 42.5601,29.3084 37.7267,33.1418 30.5,34C 32.0406,36.9156 33.7073,39.7489 35.5,42.5C 32.8333,43.8333 30.1667,43.8333 27.5,42.5C 25.7073,39.7489 24.0406,36.9156 22.5,34C 15.4764,33.8311 8.47636,33.3311 1.5,32.5C 5.67696,24.1364 10.3436,16.1364 15.5,8.5C 19.5037,14.9915 23.6703,21.3248 28,27.5C 34.6797,27.1549 38.513,23.6549 39.5,17C 38.8689,13.4027 37.2022,10.4027 34.5,8C 25.2214,6.91395 15.888,6.08062 6.5,5.5C 5.54355,3.92464 4.87688,2.25797 4.5,0.5 Z M 14.5,22.5 C 20.1857,26.1135 19.5191,27.2802 12.5,26C 13.305,24.8873 13.9717,23.7206 14.5,22.5 Z"/></g>
<g><path style="opacity:0.771" fill="#fefffe" d="M 52.5,3.5 C 57.5111,3.33407 62.5111,3.50074 67.5,4C 75.4522,9.73996 75.4522,15.5733 67.5,21.5C 69.3725,25.4121 71.3725,29.2454 73.5,33C 71.4213,33.8077 69.4213,33.641 67.5,32.5C 65.8333,29.1667 64.1667,25.8333 62.5,22.5C 60.9547,21.5481 59.288,21.2148 57.5,21.5C 57.5,25.5 57.5,29.5 57.5,33.5C 55.8333,33.5 54.1667,33.5 52.5,33.5C 52.5,23.5 52.5,13.5 52.5,3.5 Z M 57.5,7.5 C 60.1873,7.33591 62.854,7.50258 65.5,8C 69.0567,10.5808 69.39,13.5808 66.5,17C 63.5682,17.9533 60.5682,18.4533 57.5,18.5C 57.5,14.8333 57.5,11.1667 57.5,7.5 Z"/></g>
<g><path style="opacity:0.839" fill="#fefffe" d="M 84.5,3.5 C 90.8333,3.5 97.1667,3.5 103.5,3.5C 103.5,4.83333 103.5,6.16667 103.5,7.5C 98.5,7.5 93.5,7.5 88.5,7.5C 88.5,10.5 88.5,13.5 88.5,16.5C 93.1667,16.5 97.8333,16.5 102.5,16.5C 102.5,17.8333 102.5,19.1667 102.5,20.5C 97.8333,20.5 93.1667,20.5 88.5,20.5C 88.5,23.8333 88.5,27.1667 88.5,30.5C 93.5,30.5 98.5,30.5 103.5,30.5C 103.5,31.5 103.5,32.5 103.5,33.5C 97.1667,33.5 90.8333,33.5 84.5,33.5C 84.5,23.5 84.5,13.5 84.5,3.5 Z"/></g>
<g><path style="opacity:0.755" fill="#fefffe" d="M 114.5,3.5 C 116.467,3.26057 118.301,3.59391 120,4.5C 124.333,11.1667 128.667,17.8333 133,24.5C 133.5,17.5079 133.666,10.5079 133.5,3.5C 135.167,3.5 136.833,3.5 138.5,3.5C 138.5,13.5 138.5,23.5 138.5,33.5C 136.533,33.7394 134.699,33.4061 133,32.5C 128.667,25.8333 124.333,19.1667 120,12.5C 119.5,19.4921 119.334,26.4921 119.5,33.5C 117.833,33.5 116.167,33.5 114.5,33.5C 114.5,23.5 114.5,13.5 114.5,3.5 Z"/></g>
<g><path style="opacity:0.774" fill="#fefffe" d="M 159.5,3.5 C 161.766,3.14118 163.599,3.80784 165,5.5C 168.474,14.7569 171.641,24.0903 174.5,33.5C 172.833,33.5 171.167,33.5 169.5,33.5C 169.941,27.6069 167.274,25.2736 161.5,26.5C 156.657,25.7281 153.99,27.7281 153.5,32.5C 151.833,33.8333 150.167,33.8333 148.5,32.5C 152.371,22.8826 156.038,13.216 159.5,3.5 Z M 161.5,10.5 C 163.049,14.2907 164.716,18.124 166.5,22C 163.446,22.8214 160.446,22.6548 157.5,21.5C 159.125,17.9205 160.459,14.2538 161.5,10.5 Z"/></g>
</svg>
